# MagicaVoxel @ Ephtracy

# group
o 

# material
mtllib caveInside.mtl
usemtl palette

# normals
vn -1 0 0
vn 1 0 0
vn 0 0 1
vn 0 0 -1
vn 0 -1 0
vn 0 1 0

# texcoords
vt 0.537109 0.5
vt 0.986328 0.5

# verts
v 0 2 0
v 0 2 -4
v 0 2.4 0
v 0 2.4 -4
v 0.6 2.4 -3.1
v 0.6 2.4 -3.5
v 0.6 2.5 -3.1
v 0.6 2.5 -3.5
v 0.7 2.5 -3.2
v 0.7 2.5 -3.3
v 0.7 2.6 -3.2
v 0.7 2.6 -3.3
v 0.9 2.4 -1.2
v 0.9 2.4 -1.5
v 0.9 2.5 -1.2
v 0.9 2.5 -1.5
v 1 2.5 -1.3
v 1 2.5 -1.4
v 1 2.6 -1.3
v 1 2.6 -1.4
v 2.8 2.4 -1.2
v 2.8 2.4 -1.5
v 2.8 2.4 -2.9
v 2.8 2.4 -3.3
v 2.8 2.5 -1.2
v 2.8 2.5 -1.3
v 2.8 2.5 -1.4
v 2.8 2.5 -1.5
v 2.8 2.5 -2.9
v 2.8 2.5 -3
v 2.8 2.5 -3.1
v 2.8 2.5 -3.3
v 2.8 2.6 -1.3
v 2.8 2.6 -1.4
v 2.8 2.6 -3
v 2.8 2.6 -3.1
v 0.8 2.4 -3.1
v 0.8 2.4 -3.5
v 0.8 2.5 -3.1
v 0.8 2.5 -3.2
v 0.8 2.5 -3.3
v 0.8 2.5 -3.5
v 0.8 2.6 -3.2
v 0.8 2.6 -3.3
v 1.1 2.4 -1.2
v 1.1 2.4 -1.5
v 1.1 2.5 -1.2
v 1.1 2.5 -1.3
v 1.1 2.5 -1.4
v 1.1 2.5 -1.5
v 1.1 2.6 -1.3
v 1.1 2.6 -1.4
v 2.9 2.5 -3
v 2.9 2.5 -3.1
v 2.9 2.6 -3
v 2.9 2.6 -3.1
v 3 2.4 -1.2
v 3 2.4 -1.5
v 3 2.4 -2.9
v 3 2.4 -3.3
v 3 2.5 -1.2
v 3 2.5 -1.3
v 3 2.5 -1.4
v 3 2.5 -1.5
v 3 2.5 -2.9
v 3 2.5 -3.3
v 3 2.6 -1.3
v 3 2.6 -1.4
v 4 2 0
v 4 2 -4
v 4 2.4 0
v 4 2.4 -4
v 0 2 0
v 0 2.4 0
v 4 2 0
v 4 2.4 0
v 0.9 2.4 -1.2
v 0.9 2.5 -1.2
v 1.1 2.4 -1.2
v 1.1 2.5 -1.2
v 2.8 2.4 -1.2
v 2.8 2.5 -1.2
v 3 2.4 -1.2
v 3 2.5 -1.2
v 1 2.5 -1.3
v 1 2.6 -1.3
v 1.1 2.5 -1.3
v 1.1 2.6 -1.3
v 2.8 2.5 -1.3
v 2.8 2.6 -1.3
v 3 2.5 -1.3
v 3 2.6 -1.3
v 2.8 2.4 -2.9
v 2.8 2.5 -2.9
v 3 2.4 -2.9
v 3 2.5 -2.9
v 2.8 2.5 -3
v 2.8 2.6 -3
v 2.9 2.5 -3
v 2.9 2.6 -3
v 0.6 2.4 -3.1
v 0.6 2.5 -3.1
v 0.8 2.4 -3.1
v 0.8 2.5 -3.1
v 0.7 2.5 -3.2
v 0.7 2.6 -3.2
v 0.8 2.5 -3.2
v 0.8 2.6 -3.2
v 1 2.5 -1.4
v 1 2.6 -1.4
v 1.1 2.5 -1.4
v 1.1 2.6 -1.4
v 2.8 2.5 -1.4
v 2.8 2.6 -1.4
v 3 2.5 -1.4
v 3 2.6 -1.4
v 0.9 2.4 -1.5
v 0.9 2.5 -1.5
v 1.1 2.4 -1.5
v 1.1 2.5 -1.5
v 2.8 2.4 -1.5
v 2.8 2.5 -1.5
v 3 2.4 -1.5
v 3 2.5 -1.5
v 2.8 2.5 -3.1
v 2.8 2.6 -3.1
v 2.9 2.5 -3.1
v 2.9 2.6 -3.1
v 0.7 2.5 -3.3
v 0.7 2.6 -3.3
v 0.8 2.5 -3.3
v 0.8 2.6 -3.3
v 2.8 2.4 -3.3
v 2.8 2.5 -3.3
v 3 2.4 -3.3
v 3 2.5 -3.3
v 0.6 2.4 -3.5
v 0.6 2.5 -3.5
v 0.8 2.4 -3.5
v 0.8 2.5 -3.5
v 0 2 -4
v 0 2.4 -4
v 4 2 -4
v 4 2.4 -4
v 0 2 0
v 4 2 0
v 0 2 -4
v 4 2 -4
v 0 2.4 0
v 4 2.4 0
v 0.9 2.4 -1.2
v 1.1 2.4 -1.2
v 2.8 2.4 -1.2
v 3 2.4 -1.2
v 0.9 2.4 -1.5
v 1.1 2.4 -1.5
v 2.8 2.4 -1.5
v 3 2.4 -1.5
v 2.8 2.4 -2.9
v 3 2.4 -2.9
v 0.6 2.4 -3.1
v 0.8 2.4 -3.1
v 2.8 2.4 -3.3
v 3 2.4 -3.3
v 0.6 2.4 -3.5
v 0.8 2.4 -3.5
v 0 2.4 -4
v 4 2.4 -4
v 0.9 2.5 -1.2
v 1.1 2.5 -1.2
v 2.8 2.5 -1.2
v 3 2.5 -1.2
v 1 2.5 -1.3
v 1.1 2.5 -1.3
v 2.8 2.5 -1.3
v 3 2.5 -1.3
v 1 2.5 -1.4
v 1.1 2.5 -1.4
v 2.8 2.5 -1.4
v 3 2.5 -1.4
v 0.9 2.5 -1.5
v 1.1 2.5 -1.5
v 2.8 2.5 -1.5
v 3 2.5 -1.5
v 2.8 2.5 -2.9
v 3 2.5 -2.9
v 2.8 2.5 -3
v 2.9 2.5 -3
v 0.6 2.5 -3.1
v 0.8 2.5 -3.1
v 2.8 2.5 -3.1
v 2.9 2.5 -3.1
v 0.7 2.5 -3.2
v 0.8 2.5 -3.2
v 0.7 2.5 -3.3
v 0.8 2.5 -3.3
v 2.8 2.5 -3.3
v 3 2.5 -3.3
v 0.6 2.5 -3.5
v 0.8 2.5 -3.5
v 1 2.6 -1.3
v 1.1 2.6 -1.3
v 2.8 2.6 -1.3
v 3 2.6 -1.3
v 1 2.6 -1.4
v 1.1 2.6 -1.4
v 2.8 2.6 -1.4
v 3 2.6 -1.4
v 2.8 2.6 -3
v 2.9 2.6 -3
v 2.8 2.6 -3.1
v 2.9 2.6 -3.1
v 0.7 2.6 -3.2
v 0.8 2.6 -3.2
v 0.7 2.6 -3.3
v 0.8 2.6 -3.3

# faces
f 3/1/1 2/1/1 1/1/1
f 4/1/1 2/1/1 3/1/1
f 7/2/1 6/2/1 5/2/1
f 8/2/1 6/2/1 7/2/1
f 11/2/1 10/2/1 9/2/1
f 12/2/1 10/2/1 11/2/1
f 15/2/1 14/2/1 13/2/1
f 16/2/1 14/2/1 15/2/1
f 19/2/1 18/2/1 17/2/1
f 20/2/1 18/2/1 19/2/1
f 25/2/1 22/2/1 21/2/1
f 26/2/1 22/2/1 25/2/1
f 27/2/1 22/2/1 26/2/1
f 28/2/1 22/2/1 27/2/1
f 29/2/1 24/2/1 23/2/1
f 30/2/1 24/2/1 29/2/1
f 31/2/1 24/2/1 30/2/1
f 32/2/1 24/2/1 31/2/1
f 33/2/1 27/2/1 26/2/1
f 34/2/1 27/2/1 33/2/1
f 35/2/1 31/2/1 30/2/1
f 36/2/1 31/2/1 35/2/1
f 37/2/2 38/2/2 39/2/2
f 39/2/2 38/2/2 40/2/2
f 40/2/2 38/2/2 41/2/2
f 41/2/2 38/2/2 42/2/2
f 40/2/2 41/2/2 43/2/2
f 43/2/2 41/2/2 44/2/2
f 45/2/2 46/2/2 47/2/2
f 47/2/2 46/2/2 48/2/2
f 48/2/2 46/2/2 49/2/2
f 49/2/2 46/2/2 50/2/2
f 48/2/2 49/2/2 51/2/2
f 51/2/2 49/2/2 52/2/2
f 53/2/2 54/2/2 55/2/2
f 55/2/2 54/2/2 56/2/2
f 57/2/2 58/2/2 61/2/2
f 61/2/2 58/2/2 62/2/2
f 62/2/2 58/2/2 63/2/2
f 63/2/2 58/2/2 64/2/2
f 59/2/2 60/2/2 65/2/2
f 65/2/2 60/2/2 66/2/2
f 62/2/2 63/2/2 67/2/2
f 67/2/2 63/2/2 68/2/2
f 69/1/2 70/1/2 71/1/2
f 71/1/2 70/1/2 72/1/2
f 75/1/3 74/1/3 73/1/3
f 76/1/3 74/1/3 75/1/3
f 79/2/3 78/2/3 77/2/3
f 80/2/3 78/2/3 79/2/3
f 83/2/3 82/2/3 81/2/3
f 84/2/3 82/2/3 83/2/3
f 87/2/3 86/2/3 85/2/3
f 88/2/3 86/2/3 87/2/3
f 91/2/3 90/2/3 89/2/3
f 92/2/3 90/2/3 91/2/3
f 95/2/3 94/2/3 93/2/3
f 96/2/3 94/2/3 95/2/3
f 99/2/3 98/2/3 97/2/3
f 100/2/3 98/2/3 99/2/3
f 103/2/3 102/2/3 101/2/3
f 104/2/3 102/2/3 103/2/3
f 107/2/3 106/2/3 105/2/3
f 108/2/3 106/2/3 107/2/3
f 109/2/4 110/2/4 111/2/4
f 111/2/4 110/2/4 112/2/4
f 113/2/4 114/2/4 115/2/4
f 115/2/4 114/2/4 116/2/4
f 117/2/4 118/2/4 119/2/4
f 119/2/4 118/2/4 120/2/4
f 121/2/4 122/2/4 123/2/4
f 123/2/4 122/2/4 124/2/4
f 125/2/4 126/2/4 127/2/4
f 127/2/4 126/2/4 128/2/4
f 129/2/4 130/2/4 131/2/4
f 131/2/4 130/2/4 132/2/4
f 133/2/4 134/2/4 135/2/4
f 135/2/4 134/2/4 136/2/4
f 137/2/4 138/2/4 139/2/4
f 139/2/4 138/2/4 140/2/4
f 141/1/4 142/1/4 143/1/4
f 143/1/4 142/1/4 144/1/4
f 147/1/5 146/1/5 145/1/5
f 148/1/5 146/1/5 147/1/5
f 149/1/6 150/1/6 151/1/6
f 151/1/6 150/1/6 152/1/6
f 152/1/6 150/1/6 153/1/6
f 153/1/6 150/1/6 154/1/6
f 149/1/6 151/1/6 155/1/6
f 152/1/6 153/1/6 156/1/6
f 156/1/6 153/1/6 157/1/6
f 154/1/6 150/1/6 158/1/6
f 156/1/6 157/1/6 159/1/6
f 157/1/6 158/1/6 159/1/6
f 155/1/6 156/1/6 159/1/6
f 158/1/6 150/1/6 160/1/6
f 159/1/6 158/1/6 160/1/6
f 155/1/6 159/1/6 161/1/6
f 149/1/6 155/1/6 161/1/6
f 161/1/6 159/1/6 162/1/6
f 162/1/6 159/1/6 163/1/6
f 160/1/6 150/1/6 164/1/6
f 149/1/6 161/1/6 165/1/6
f 162/1/6 163/1/6 166/1/6
f 163/1/6 164/1/6 166/1/6
f 149/1/6 165/1/6 167/1/6
f 165/1/6 166/1/6 167/1/6
f 166/1/6 164/1/6 168/1/6
f 167/1/6 166/1/6 168/1/6
f 164/1/6 150/1/6 168/1/6
f 169/2/6 170/2/6 173/2/6
f 173/2/6 170/2/6 174/2/6
f 171/2/6 172/2/6 175/2/6
f 175/2/6 172/2/6 176/2/6
f 169/2/6 173/2/6 177/2/6
f 169/2/6 177/2/6 181/2/6
f 177/2/6 178/2/6 181/2/6
f 181/2/6 178/2/6 182/2/6
f 179/2/6 180/2/6 183/2/6
f 183/2/6 180/2/6 184/2/6
f 185/2/6 186/2/6 187/2/6
f 187/2/6 186/2/6 188/2/6
f 188/2/6 186/2/6 192/2/6
f 189/2/6 190/2/6 193/2/6
f 193/2/6 190/2/6 194/2/6
f 189/2/6 193/2/6 195/2/6
f 191/2/6 192/2/6 197/2/6
f 192/2/6 186/2/6 198/2/6
f 197/2/6 192/2/6 198/2/6
f 195/2/6 196/2/6 199/2/6
f 189/2/6 195/2/6 199/2/6
f 199/2/6 196/2/6 200/2/6
f 201/2/6 202/2/6 205/2/6
f 205/2/6 202/2/6 206/2/6
f 203/2/6 204/2/6 207/2/6
f 207/2/6 204/2/6 208/2/6
f 209/2/6 210/2/6 211/2/6
f 211/2/6 210/2/6 212/2/6
f 213/2/6 214/2/6 215/2/6
f 215/2/6 214/2/6 216/2/6
